Coordinates
version=1
nRows=11
nColumns=46
inDegrees=yes

Units are S.I. units (second, meters, Newtons, ...)
Angles are in degrees.

endheader
time	pelvis_tilt	pelvis_list	pelvis_rotation	pelvis_tx	pelvis_ty	pelvis_tz	bb_angle	bb_tx	bb_ty	bb_tz	hip_flexion_r	hip_adduction_r	hip_rotation_r	knee_angle_r	knee_angle_r_beta	ankle_angle_r	subtalar_angle_r	mtp_angle_r	crank_angle_r	hip_flexion_l	hip_adduction_l	hip_rotation_l	knee_angle_l	knee_angle_l_beta	ankle_angle_l	subtalar_angle_l	mtp_angle_l	crank_angle_l	lumbar_extension	lumbar_bending	lumbar_rotation	arm_flex_r	arm_add_r	arm_rot_r	elbow_flex_r	pro_sup_r	wrist_flex_r	wrist_dev_r	arm_flex_l	arm_add_l	arm_rot_l	elbow_flex_l	pro_sup_l	wrist_flex_l	wrist_dev_l
      5.00000000	    -19.99680451	     -0.88860475	     -7.23059671	      0.18319126	      1.04238252	     -0.23400398	      0.00000000	      0.50000000	      0.00000000	      0.25000000	     64.16530057	     -0.18780975	      1.13588042	     55.40373067	      0.96697752	     -0.07725465	     -3.61670785	      0.00000000	      0.00000000	     64.26099331	     -9.43022516	     -0.87861278	    100.52389303	      1.75447291	     -6.81781857	    -18.96710370	      0.00000000	      0.00000000	    -63.75512046	     -1.88865149	      0.02457619	     78.36869898	    -17.90272189	     32.70038752	     88.11387805	     51.96976327	      0.00000000	      0.00000000	     66.21398689	    -27.65670125	     16.27229033	     97.80661546	     51.46940539	      0.00000000	      0.00000000
      5.00500000	    -19.66591481	     -0.67561777	     -7.08803263	      0.18387179	      1.04367952	     -0.23305646	      0.00000000	      0.50000000	      0.00000000	      0.25000000	     61.84994712	     -0.45581764	      1.07522834	     52.42528997	      0.91499392	     -1.32755083	     -3.39767609	      0.00000000	      0.00000000	     65.15867503	     -9.32632962	     -0.64904682	    102.39551292	      1.78713884	     -6.17760860	    -18.45824333	      0.00000000	      0.00000000	    -64.01203090	     -2.16125118	     -0.26081296	     78.09856020	    -17.76823378	     32.28710255	     87.99520932	     51.89362349	      0.00000000	      0.00000000	     66.66089192	    -27.68743440	     16.71023580	     97.42656924	     51.43818080	      0.00000000	      0.00000000
      5.01000000	    -19.68346657	     -0.08195061	     -6.78885958	      0.18452866	      1.04427367	     -0.23217698	      0.00000000	      0.50000000	      0.00000000	      0.25000000	     60.02337282	     -1.09451496	      1.19813139	     49.61080241	      0.86587185	     -2.30180306	     -2.80265306	      0.00000000	      0.00000000	     66.44845912	     -8.85562073	     -0.71680526	    104.11339398	      1.81712152	     -5.72653680	    -18.25926573	      0.00000000	      0.00000000	    -63.82919441	     -2.54519989	     -0.97379920	     77.60292356	    -17.77426867	     32.12874009	     87.92581569	     51.84985641	      0.00000000	      0.00000000	     66.79572436	    -27.62788398	     16.92828424	     97.24305905	     51.41132266	      0.00000000	      0.00000000
      5.01500000	    -19.70812530	      0.35560629	     -6.47892028	      0.18497099	      1.04495398	     -0.23129380	      0.00000000	      0.50000000	      0.00000000	      0.25000000	     58.13794843	     -1.59552607	      1.29305717	     46.76255011	      0.81616047	     -3.41793187	     -2.30892012	      0.00000000	      0.00000000	     67.83662216	     -8.46526193	     -0.59109808	    105.82297022	      1.84695925	     -5.27052484	    -18.07140648	      0.00000000	      0.00000000	    -63.70064096	     -2.86898441	     -1.68155836	     77.21099594	    -17.72637436	     31.92832056	     87.84811422	     51.80319246	      0.00000000	      0.00000000	     67.00685565	    -27.62494812	     17.18957046	     97.04718588	     51.38882592	      0.00000000	      0.00000000
      5.02000000	    -19.64806841	      0.33507949	     -5.93227234	      0.18566121	      1.04592991	     -0.23075396	      0.00000000	      0.50000000	      0.00000000	      0.25000000	     55.98578830	     -2.00652913	      0.72642096	     43.78404612	      0.76417576	     -5.23374870	     -2.34021385	      0.00000000	      0.00000000	     69.26877758	     -8.16567715	      0.04682139	    107.52981226	      1.87674927	     -4.74022984	    -17.32854156	      0.00000000	      0.00000000	    -63.74670033	     -2.61573739	     -1.94215762	     76.73581413	    -17.24010609	     31.25163009	     87.62536292	     51.65696528	      0.00000000	      0.00000000	     67.60218988	    -27.87001534	     17.93180831	     96.62872963	     51.35315395	      0.00000000	      0.00000000
      5.02500000	    -19.81600909	      0.50277068	     -5.24734687	      0.18619692	      1.04657748	     -0.23062643	      0.00000000	      0.50000000	      0.00000000	      0.25000000	     54.13424684	     -2.62080112	      0.31344207	     40.93918136	      0.71452351	     -6.75137836	     -2.28040193	      0.00000000	      0.00000000	     70.96377746	     -7.52968129	      0.57734111	    109.12079510	      1.90451716	     -4.03208370	    -17.18841454	      0.00000000	      0.00000000	    -63.51468044	     -2.44290029	     -2.46412121	     76.23134953	    -16.82189324	     30.51030406	     87.22207907	     51.53471958	      0.00000000	      0.00000000	     68.19565631	    -28.22779225	     19.07949884	     96.10781234	     51.39105759	      0.00000000	      0.00000000
      5.03000000	    -20.06716166	      0.82102417	     -4.46195098	      0.18670568	      1.04717851	     -0.23088010	      0.00000000	      0.50000000	      0.00000000	      0.25000000	     52.51531386	     -3.44472473	     -0.10869861	     38.35465588	      0.66941503	     -8.23025868	     -1.89808999	      0.00000000	      0.00000000	     72.73598391	     -6.64890281	      0.89770091	    110.51938428	      1.92892714	     -3.73309474	    -17.06293553	      0.00000000	      0.00000000	    -63.23257124	     -2.21929587	     -3.16935403	     75.70833584	    -16.58613837	     30.05377868	     87.01092463	     51.47878351	      0.00000000	      0.00000000	     68.58586396	    -28.36638640	     19.70560869	     95.85039014	     51.42278889	      0.00000000	      0.00000000
      5.03500000	    -20.41880775	      1.26984751	     -3.72094123	      0.18714931	      1.04767829	     -0.23106259	      0.00000000	      0.50000000	      0.00000000	      0.25000000	     51.12330057	     -4.34398308	     -0.51726081	     35.99405044	      0.62821469	     -9.58946266	     -1.28328351	      0.00000000	      0.00000000	     74.60093622	     -5.77939817	      0.99895554	    111.78497147	      1.95101581	     -3.52012653	    -16.96355854	      0.00000000	      0.00000000	    -62.87177888	     -2.15795645	     -4.03254857	     75.29451511	    -16.57571311	     29.84498433	     86.89283030	     51.44604239	      0.00000000	      0.00000000	     68.82406781	    -28.31921134	     19.96932171	     95.78113340	     51.43532944	      0.00000000	      0.00000000
      5.04000000	    -20.65147475	      1.38891330	     -2.97062076	      0.18746174	      1.04852895	     -0.23102606	      0.00000000	      0.50000000	      0.00000000	      0.25000000	     49.57674752	     -4.93986778	     -1.21584690	     33.67039352	      0.58765923	    -11.39001190	     -1.23646917	      0.00000000	      0.00000000	     76.42660938	     -5.09834340	      1.39713736	    112.97175858	      1.97172915	     -3.36975096	    -16.55990127	      0.00000000	      0.00000000	    -62.68233599	     -1.90346627	     -4.56657210	     74.80335516	    -16.10824883	     29.00222598	     86.63714653	     51.35260624	      0.00000000	      0.00000000	     69.25905868	    -28.57223053	     20.77959794	     95.55194977	     51.49529210	      0.00000000	      0.00000000
      5.04500000	    -20.86967165	      1.81738944	     -2.52465376	      0.18781578	      1.04954448	     -0.23013005	      0.00000000	      0.50000000	      0.00000000	      0.25000000	     48.24666156	     -5.48300108	     -1.31135674	     31.71795957	      0.55358283	    -12.82266214	     -0.69826396	      0.00000000	      0.00000000	     78.08796388	     -4.69331909	      1.30938351	    113.96965487	      1.98914572	     -3.15751351	    -16.49269815	      0.00000000	      0.00000000	    -62.52066160	     -2.12516345	     -5.28630710	     74.48738306	    -16.08907365	     28.84850247	     86.51376094	     51.32558855	      0.00000000	      0.00000000	     69.52390061	    -28.48169451	     20.94326449	     95.53602966	     51.50704733	      0.00000000	      0.00000000
      5.05000000	    -21.57710398	      2.14105773	     -1.44930488	      0.18764234	      1.04915949	     -0.23205954	      0.00000000	      0.50000000	      0.00000000	      0.25000000	     47.51437105	     -6.59635640	     -2.05577106	     29.98336232	      0.52330839	    -14.41862570	     -0.29355189	      0.00000000	      0.00000000	     80.47328167	     -3.29381635	      1.48245067	    114.94842598	      2.00622850	     -2.81445924	    -16.59471570	      0.00000000	      0.00000000	    -61.80196972	     -1.59847502	     -6.09564438	     74.19090875	    -16.13813299	     28.56434373	     86.35501588	     51.27886404	      0.00000000	      0.00000000	     69.65411360	    -28.34762915	     21.20998813	     95.54894706	     51.53451411	      0.00000000	      0.00000000
